<svg xmlns="http://www.w3.org/2000/svg" viewBox="0 0 64 64">
  <rect width="64" height="64" rx="18" fill="#9e3039"/>
  <path d="M33 17c-3 2-5 5-6 9M33 17c3 2 6 4 8 7" fill="none" stroke="#fff" stroke-width="2.4" stroke-linecap="round"/>
  <path d="M33 17c3-7 10-10 18-9-2 7-9 11-18 9z" fill="#fff"/>
  <path d="M33 17c-3-6-9-8-15-7 2 6 8 9 15 7z" fill="#fff" opacity=".85"/>
  <ellipse cx="42" cy="34" rx="9.5" ry="10.5" fill="#fff" opacity=".9"/>
  <ellipse cx="26" cy="39" rx="12" ry="13" fill="#fff" stroke="#9e3039" stroke-width="2.5"/>
  <path d="M26 49.5v2M25 50.5h2" stroke="#9e3039" stroke-width="1.6" stroke-linecap="round" opacity=".45"/>
  <ellipse cx="21.5" cy="34" rx="3" ry="4" fill="#9e3039" opacity=".12"/>
</svg>
